<?xml version="1.0"?>
<svg version="1.1" xmlns="http://www.w3.org/2000/svg" width="200" height="40" style=""><path fill="#7532c7" d="M15.833984375,29.638671875q0-2.966796875,0.2666015625-5.9404296875t1.1142578125-5.8583984375q0.24609375-0.861328125,0.642578125-1.7021484375t0.970703125-1.4970703125t1.3671875-1.06640625t1.88671875-0.41015625l0.287109375,0.02734375q1.17578125,0.1640625,1.736328125,0.9501953125t0.560546875,1.9619140625q0,0.314453125-0.0751953125,0.7861328125t-0.2392578125,0.9091796875t-0.4443359375,0.7451171875t-0.7041015625,0.3076171875q-0.19140625-0.02734375-0.3486328125-0.068359375t-0.2939453125-0.177734375q0.21875-0.478515625,0.3896484375-0.998046875t0.1708984375-1.189453125q0-0.24609375-0.041015625-0.62890625t-0.1572265625-0.7587890625t-0.3076171875-0.65625t-0.533203125-0.2802734375q-0.861328125,0-1.44921875,0.9638671875t-0.984375,2.4609375t-0.587890625,3.30859375t-0.2939453125,3.5t-0.1162109375,3.048828125t-0.013671875,1.9208984375q0,0.65625-0.013671875,1.44921875l0,0.177734375q0.013671875,0.697265625,0.095703125,1.326171875q0.109375,0.7109375,0.423828125,1.23046875t0.984375,0.6015625q0.205078125,0.02734375,0.396484375,0.02734375q0.79296875,0,1.435546875-0.451171875q0.79296875-0.560546875,1.408203125-1.4560546875t1.09375-1.96875t0.8818359375-2.0302734375t0.7861328125-1.5859375t0.79296875-0.62890625q0.13671875,0,0.41015625,0.0546875t0.2734375,0.259765625q0,0.0546875-0.02734375,0.150390625t-0.068359375,0.150390625q-0.369140625,1.44921875-0.9365234375,3.0078125t-1.44921875,2.8369140625t-2.16015625,2.0849609375t-3.0693359375,0.806640625q-1.28515625,0-2.0849609375-0.4853515625t-1.23046875-1.298828125t-0.587890625-1.8388671875t-0.1572265625-2.078125z M30.40369140625,33.75390625q0-0.396484375,0.0341796875-0.833984375t0.0615234375-0.8203125l0.08203125-2.05078125q0.13671875-2.4609375,0.3349609375-4.83984375t0.3349609375-4.8125q0.08203125-1.33984375,0.123046875-2.6318359375t0.123046875-2.6318359375q-0.0546875-0.109375-0.0546875-0.150390625q0-0.19140625,0.1435546875-0.30078125t0.3349609375-0.1845703125t0.4033203125-0.1025390625t0.3212890625-0.02734375l0.314453125,0q0.423828125,0.0546875,0.615234375,0.2666015625t0.24609375,0.505859375t0.02734375,0.62890625t-0.02734375,0.6220703125q0,1.982421875-0.095703125,4.0400390625t-0.21875,4.12890625t-0.2255859375,4.142578125t-0.1025390625,4.0947265625l0,0.95703125q0,0.642578125-0.3623046875,0.84765625t-1.0048828125,0.205078125q-0.560546875,0-0.984375-0.24609375t-0.423828125-0.806640625z M36.6745703125,28.572265625q0-1.2578125,0.2939453125-2.4677734375t0.4990234375-2.4130859375q0.0546875-0.314453125,0.4306640625-0.3896484375t0.6357421875-0.0751953125q0.451171875,0,0.724609375,0.13671875q0.109375,0.0546875,0.205078125,0.123046875t0.095703125,0.177734375q0,1.17578125-0.2802734375,2.296875t-0.2802734375,2.37890625q0,0.423828125,0.0615234375,0.7998046875t0.1162109375,0.7451171875l0.08203125,0.396484375q0,0.109375,0.013671875,0.19140625t0.041015625,0.19140625q0,0.24609375-0.3486328125,0.3349609375t-0.6083984375,0.0888671875q-0.396484375,0-0.7314453125-0.1572265625t-0.5263671875-0.5400390625l-0.19140625-0.396484375q-0.1640625-0.314453125-0.1640625-0.7041015625t-0.068359375-0.7177734375z M37.5495703125,20.341796875l0-0.259765625q0-0.642578125,0.3212890625-1.1484375t0.9638671875-0.505859375q0.08203125,0,0.1572265625,0.013671875t0.1572265625,0.013671875q0.1640625,0.02734375,0.4306640625,0.1298828125t0.2666015625,0.3212890625l0,0.02734375q-0.0546875,0.109375-0.068359375,0.2255859375t-0.068359375,0.1982421875l0.02734375-0.02734375q-0.1640625,0.423828125-0.2666015625,0.68359375t-0.2255859375,0.4169921875t-0.3076171875,0.2255859375t-0.5263671875,0.068359375q-0.0546875,0-0.19140625-0.013671875t-0.2939453125-0.0546875t-0.2666015625-0.109375t-0.109375-0.205078125z M42.64466796875,23.185546875q0-0.13671875,0.2119140625-0.232421875t0.505859375-0.13671875t0.560546875-0.068359375t0.4033203125-0.02734375q0.0546875-0.369140625,0.1572265625-0.998046875t0.2529296875-1.3466796875t0.3759765625-1.4423828125t0.546875-1.3125t0.7587890625-0.9638671875t1.025390625-0.3759765625l-0.02734375,0q0.19140625-0.02734375,0.3759765625-0.041015625t0.3759765625-0.013671875q0.451171875,0,0.9775390625,0.177734375t0.9775390625,0.4990234375t0.7587890625,0.7724609375t0.3076171875,0.95703125q0,0.396484375-0.1982421875,0.8544921875t-0.6904296875,0.4580078125q-0.1640625,0-0.3349609375-0.08203125t-0.3212890625-0.177734375q0.0546875-0.314453125,0.0546875-0.62890625q0-0.1640625-0.013671875-0.314453125q-0.041015625-0.478515625-0.205078125-0.8408203125t-0.4716796875-0.57421875t-0.7314453125-0.1572265625q-0.560546875,0.08203125-0.8408203125,0.68359375t-0.3896484375,1.4287109375t-0.13671875,1.681640625t-0.109375,1.3876953125q0.642578125,0.0546875,1.0869140625,0.0546875l1.1142578125,0q0.109375,0,0.3759765625,0.013671875t0.51953125,0.0546875t0.451171875,0.1435546875t0.1982421875,0.2666015625q0,0.13671875-0.109375,0.2392578125t-0.2666015625,0.1435546875t-0.328125,0.0546875t-0.2802734375,0.013671875q-0.478515625,0-0.8134765625-0.041015625t-0.642578125-0.0751953125t-0.642578125-0.0341796875t-0.7861328125,0.095703125q-0.13671875,1.517578125-0.21875,3.0078125t-0.08203125,3.0078125q0,2.37890625,0.150390625,4.662109375t0.546875,4.634765625q0.0546875,0.21875,0.095703125,0.4990234375t0.041015625,0.5400390625q0,0.24609375-0.150390625,0.4033203125t-0.3759765625,0.2255859375t-0.46484375,0.095703125t-0.4306640625,0.02734375q-0.779296875,0-1.09375-0.2392578125t-0.451171875-0.9638671875q-0.341796875-1.927734375-0.4375-3.8896484375t-0.095703125-3.9580078125q0-1.955078125,0.1435546875-3.9033203125t0.3623046875-3.8759765625q-0.109375,0-0.3759765625,0.013671875t-0.533203125,0t-0.46484375-0.095703125t-0.1982421875-0.287109375z M52.73,23.185546875q0-0.13671875,0.2119140625-0.232421875t0.505859375-0.13671875t0.560546875-0.068359375t0.4033203125-0.02734375q0.0546875-0.369140625,0.1572265625-0.998046875t0.2529296875-1.3466796875t0.3759765625-1.4423828125t0.546875-1.3125t0.7587890625-0.9638671875t1.025390625-0.3759765625l-0.02734375,0q0.19140625-0.02734375,0.3759765625-0.041015625t0.3759765625-0.013671875q0.451171875,0,0.9775390625,0.177734375t0.9775390625,0.4990234375t0.7587890625,0.7724609375t0.3076171875,0.95703125q0,0.396484375-0.1982421875,0.8544921875t-0.6904296875,0.4580078125q-0.1640625,0-0.3349609375-0.08203125t-0.3212890625-0.177734375q0.0546875-0.314453125,0.0546875-0.62890625q0-0.1640625-0.013671875-0.314453125q-0.041015625-0.478515625-0.205078125-0.8408203125t-0.4716796875-0.57421875t-0.7314453125-0.1572265625q-0.560546875,0.08203125-0.8408203125,0.68359375t-0.3896484375,1.4287109375t-0.13671875,1.681640625t-0.109375,1.3876953125q0.642578125,0.0546875,1.0869140625,0.0546875l1.1142578125,0q0.109375,0,0.3759765625,0.013671875t0.51953125,0.0546875t0.451171875,0.1435546875t0.1982421875,0.2666015625q0,0.13671875-0.109375,0.2392578125t-0.2666015625,0.1435546875t-0.328125,0.0546875t-0.2802734375,0.013671875q-0.478515625,0-0.8134765625-0.041015625t-0.642578125-0.0751953125t-0.642578125-0.0341796875t-0.7861328125,0.095703125q-0.13671875,1.517578125-0.21875,3.0078125t-0.08203125,3.0078125q0,2.37890625,0.150390625,4.662109375t0.546875,4.634765625q0.0546875,0.21875,0.095703125,0.4990234375t0.041015625,0.5400390625q0,0.24609375-0.150390625,0.4033203125t-0.3759765625,0.2255859375t-0.46484375,0.095703125t-0.4306640625,0.02734375q-0.779296875,0-1.09375-0.2392578125t-0.451171875-0.9638671875q-0.341796875-1.927734375-0.4375-3.8896484375t-0.095703125-3.9580078125q0-1.955078125,0.1435546875-3.9033203125t0.3623046875-3.8759765625q-0.109375,0-0.3759765625,0.013671875t-0.533203125,0t-0.46484375-0.095703125t-0.1982421875-0.287109375z M62.81533203125,29.4609375q0-0.95703125,0.2119140625-2.255859375t0.7177734375-2.4609375t1.3330078125-1.9755859375t2.0849609375-0.8134765625q1.17578125,0,1.763671875,0.6767578125t0.587890625,1.8251953125q0,0.751953125-0.2802734375,1.6474609375t-0.7998046875,1.6953125t-1.23046875,1.3330078125t-1.5859375,0.533203125l-0.35546875-0.02734375q0,0.369140625,0.109375,0.9912109375t0.3212890625,1.2373046875t0.546875,1.080078125t0.8134765625,0.46484375q0.697265625,0,1.33984375-0.560546875t1.216796875-1.244140625t1.06640625-1.244140625t0.90234375-0.560546875q0.21875,0,0.451171875,0.068359375t0.259765625,0.3828125q0,0.19140625-0.1025390625,0.314453125t-0.1845703125,0.2734375q-0.423828125,0.724609375-0.9228515625,1.380859375t-1.1279296875,1.189453125t-1.3740234375,0.8408203125t-1.6474609375,0.3076171875q-1.17578125,0-1.955078125-0.4169921875t-1.2578125-1.12109375t-0.6904296875-1.626953125t-0.2119140625-1.9345703125z M65.26259765625,28.421875l0.3828125,0.341796875q0.2734375,0.24609375,0.546875,0.109375t0.4921875-0.4990234375t0.4033203125-0.8955078125t0.328125-1.09375t0.2119140625-1.09375t0.068359375-0.888671875l0-0.46484375t-0.041015625-0.4921875t-0.1435546875-0.3896484375t-0.3212890625-0.1982421875q-0.068359375-0.013671875-0.123046875-0.013671875q-0.46484375,0-0.79296875,0.587890625q-0.35546875,0.65625-0.57421875,1.5927734375t-0.314453125,1.9208984375t-0.123046875,1.4765625z"/><path fill="#8b32c7" d="M84.56802734375,15.26953125q0-0.642578125,0.1572265625-0.9365234375t0.451171875-0.41015625t0.7109375-0.0888671875t0.9775390625,0.02734375q1.421875,0,2.87109375,0.4375t2.611328125,1.2783203125t1.873046875,2.0712890625t0.7109375,2.830078125q0,1.06640625-0.3076171875,2.0166015625t-0.8681640625,1.77734375t-1.3125,1.5107421875t-1.654296875,1.189453125q0.369140625,0.369140625,0.95703125,1.3056640625t1.162109375,1.99609375t1.0185546875,2.0576171875t0.5263671875,1.50390625l-0.1640625,0.24609375q-0.369140625,0.21875-0.888671875,0.232421875q-0.24609375,0-0.642578125-0.0615234375t-0.505859375-0.3623046875q-0.560546875-1.572265625-1.2236328125-3.240234375t-1.6337890625-3.0078125l0-0.02734375q-0.341796875,0.13671875-0.6767578125,0.2666015625t-0.6767578125,0.2392578125q0.109375,1.517578125,0.2255859375,2.9873046875t0.1162109375,2.9736328125q0,0.19140625-0.1845703125,0.3076171875t-0.4169921875,0.1845703125t-0.4716796875,0.095703125t-0.3896484375,0.02734375q-0.13671875,0-0.3896484375-0.02734375t-0.4853515625-0.095703125t-0.4033203125-0.1982421875t-0.1708984375-0.3486328125q0-1.517578125-0.068359375-3.0283203125t-0.150390625-3.0146484375q-0.423828125-0.2734375-0.423828125-0.7109375q0-0.341796875,0.328125-0.46484375q-0.1640625-2.884765625-0.3759765625-5.755859375t-0.2119140625-5.783203125z M87.04263671875,14.845703125q0.19140625,2.966796875,0.4306640625,5.865234375t0.4580078125,5.865234375q0.95703125-0.2734375,1.7841796875-0.9501953125t1.4287109375-1.5244140625t0.9365234375-1.845703125t0.3349609375-1.982421875q0-1.09375-0.4375-2.0986328125t-1.162109375-1.7568359375q-0.73828125-0.751953125-1.6953125-1.17578125q-0.84765625-0.369140625-1.77734375-0.369140625l-0.24609375,0z M97.45609375,29.16015625q0-0.779296875,0.1982421875-1.6064453125t0.62890625-1.490234375t1.0869140625-1.080078125t1.5859375-0.4169921875q0.697265625,0,1.4697265625,0.2392578125t1.4150390625,0.68359375t1.0458984375,1.0869140625t0.4033203125,1.435546875q0,0.95703125-0.3486328125,1.818359375t-0.9775390625,1.5380859375t-1.4697265625,1.06640625t-1.8251953125,0.3896484375q-0.806640625,0-1.408203125-0.2939453125t-1.0048828125-0.7861328125t-0.6015625-1.162109375t-0.1982421875-1.421875z M99.465859375,29.1328125q0,0.24609375,0.0751953125,0.724609375t0.2255859375,0.9365234375t0.3896484375,0.79296875t0.5810546875,0.3076171875q0.724609375-0.08203125,1.1962890625-0.4716796875t0.765625-0.9501953125t0.41015625-1.216796875t0.1162109375-1.244140625q0-0.751953125-0.2939453125-1.2578125t-0.9638671875-0.8203125q0,0.02734375,0.02734375,0.02734375t0.02734375-0.02734375l-0.341796875-0.08203125q-0.13671875-0.0546875-0.3349609375-0.123046875t-0.3896484375-0.30078125q-0.533203125,0.19140625-0.8271484375,0.4921875t-0.4443359375,0.7314453125t-0.1845703125,1.0322265625t-0.0341796875,1.44921875z M107.81486328125,28.626953125q0-0.984375,0.2529296875-1.9755859375t0.7861328125-1.77734375t1.3603515625-1.2783203125t1.9482421875-0.4921875q0.478515625,0,1.052734375,0.1162109375t1.0595703125,0.369140625t0.8203125,0.65625t0.3349609375,0.9912109375q0,0.369140625-0.19140625,0.4921875t-0.505859375,0.123046875l-0.095703125-0.13671875t-0.2666015625-0.3486328125t-0.3623046875-0.451171875t-0.369140625-0.4033203125q-0.560546875-0.560546875-1.052734375-0.6015625l-0.109375,0q-0.41015625,0-0.765625,0.24609375q-0.396484375,0.30078125-0.7041015625,0.84765625t-0.5126953125,1.162109375t-0.3212890625,1.244140625t-0.1162109375,1.0390625q0,0.560546875,0.1298828125,1.2783203125t0.4375,1.3603515625t0.779296875,1.080078125t1.2099609375,0.4375q0.669921875,0,1.216796875-0.328125t1.0458984375-0.7314453125t0.9775390625-0.724609375t0.984375-0.3212890625q0.21875,0,0.4443359375,0.0546875t0.2255859375,0.287109375l0,0.08203125q-0.24609375,0.642578125-0.833984375,1.134765625t-1.3193359375,0.8544921875t-1.517578125,0.5400390625t-1.4013671875,0.177734375q-1.1484375,0-2.0166015625-0.3759765625t-1.4423828125-1.0322265625t-0.8681640625-1.5791015625t-0.2939453125-2.0166015625z M119.7458984375,34.451171875l0.287109375-0.341796875q-0.0546875-2.296875-0.123046875-4.580078125t-0.068359375-4.5390625q0-2.802734375,0.3349609375-5.4208984375t0.6630859375-5.3662109375q0.02734375-0.1640625,0.1572265625-0.2666015625t0.3212890625-0.1708984375t0.3896484375-0.095703125t0.3623046875-0.02734375q0.21875,0,0.546875,0.08203125t0.65625,0.478515625q0,0.13671875,0.0205078125,0.2392578125t0.0205078125,0.2392578125q0,1.0390625-0.2802734375,2.228515625t-0.3759765625,2.283203125q-0.109375,1.33984375-0.150390625,2.65234375t-0.041015625,2.666015625l0.02734375,1.203125q0.2734375-0.341796875,0.779296875-0.875t1.09375-1.0322265625t1.17578125-0.8544921875t1.06640625-0.35546875q0.724609375,0,1.0048828125,0.41015625t0.2802734375,1.080078125q0,0.615234375-0.2666015625,1.28515625t-0.697265625,1.3056640625t-0.9775390625,1.1416015625t-1.080078125,0.751953125q0.724609375,0.90234375,1.4833984375,1.72265625t1.6611328125,1.544921875l0,0.314453125q-0.02734375,0.13671875-0.1708984375,0.205078125t-0.314453125,0.109375t-0.3349609375,0.0615234375t-0.2734375,0.0205078125q-0.669921875,0-1.2919921875-0.396484375t-1.162109375-0.970703125t-1.0185546875-1.216796875t-0.875-1.12109375q0.08203125,1.572265625,0.1845703125,3.1376953125t0.1025390625,3.1376953125q0,0.19140625-0.1708984375,0.3212890625t-0.396484375,0.1982421875t-0.4580078125,0.095703125t-0.3828125,0.02734375q-0.806640625,0-1.1416015625-0.2939453125t-0.5673828125-1.0185546875z M122.5486328125,28.01171875q0.341796875,0,0.8134765625-0.2939453125t0.9775390625-0.7314453125t0.943359375-0.9228515625t0.7041015625-0.9228515625t0.2666015625-0.7041015625t-0.369140625-0.2392578125q-0.13671875,0-0.560546875,0.396484375t-0.943359375,0.970703125t-1.0390625,1.244140625t-0.79296875,1.203125z M130.81560546875,29.4609375q0-0.95703125,0.2119140625-2.255859375t0.7177734375-2.4609375t1.3330078125-1.9755859375t2.0849609375-0.8134765625q1.17578125,0,1.763671875,0.6767578125t0.587890625,1.8251953125q0,0.751953125-0.2802734375,1.6474609375t-0.7998046875,1.6953125t-1.23046875,1.3330078125t-1.5859375,0.533203125l-0.35546875-0.02734375q0,0.369140625,0.109375,0.9912109375t0.3212890625,1.2373046875t0.546875,1.080078125t0.8134765625,0.46484375q0.697265625,0,1.33984375-0.560546875t1.216796875-1.244140625t1.06640625-1.244140625t0.90234375-0.560546875q0.21875,0,0.451171875,0.068359375t0.259765625,0.3828125q0,0.19140625-0.1025390625,0.314453125t-0.1845703125,0.2734375q-0.423828125,0.724609375-0.9228515625,1.380859375t-1.1279296875,1.189453125t-1.3740234375,0.8408203125t-1.6474609375,0.3076171875q-1.17578125,0-1.955078125-0.4169921875t-1.2578125-1.12109375t-0.6904296875-1.626953125t-0.2119140625-1.9345703125z M133.26287109375,28.421875l0.3828125,0.341796875q0.2734375,0.24609375,0.546875,0.109375t0.4921875-0.4990234375t0.4033203125-0.8955078125t0.328125-1.09375t0.2119140625-1.09375t0.068359375-0.888671875l0-0.46484375t-0.041015625-0.4921875t-0.1435546875-0.3896484375t-0.3212890625-0.1982421875q-0.068359375-0.013671875-0.123046875-0.013671875q-0.46484375,0-0.79296875,0.587890625q-0.35546875,0.65625-0.57421875,1.5927734375t-0.314453125,1.9208984375t-0.123046875,1.4765625z M142.24078125,25.072265625q0-0.560546875,0.1982421875-0.943359375t0.8408203125-0.3828125q0.24609375,0,0.615234375,0.0751953125t0.423828125,0.3759765625q0.13671875,0.806640625,0.150390625,1.75t0.095703125,1.77734375q0.314453125-0.615234375,0.806640625-1.326171875t1.12109375-1.3125t1.3671875-0.998046875t1.50390625-0.396484375q0.0546875,0,0.205078125,0.041015625t0.2802734375,0.1162109375t0.1572265625,0.1708984375t-0.150390625,0.177734375q-0.0546875,0.1640625-0.232421875,0.1982421875t-0.314453125,0.0341796875q-0.08203125,0-0.259765625-0.068359375q-1.01171875,0.533203125-1.72265625,1.44921875t-1.162109375,2.0302734375t-0.65625,2.3515625t-0.205078125,2.4130859375q0,0.587890625-0.2666015625,0.7109375t-0.8544921875,0.123046875q-0.314453125,0-0.6630859375-0.068359375t-0.4853515625-0.4375q-0.24609375-0.779296875-0.4033203125-1.791015625t-0.2392578125-2.0849609375t-0.1162109375-2.1123046875t-0.0341796875-1.873046875z"/></svg>
